<mxfile host="app.diagrams.net" agent="Mozilla/5.0 (Windows NT 10.0; Win64; x64) AppleWebKit/537.36 (KHTML, like Gecko) Chrome/131.0.0.0 Safari/537.36" version="24.8.6">
  <diagram name="Page-1" id="KWjliaDX2a0zW5vGGWmH">
    <mxGraphModel dx="2206" dy="1135" grid="1" gridSize="10" guides="1" tooltips="1" connect="1" arrows="1" fold="1" page="1" pageScale="1" pageWidth="827" pageHeight="1169" math="0" shadow="0">
      <root>
        <mxCell id="0" />
        <mxCell id="1" parent="0" />
        <mxCell id="pRn54FA1rMRt-XrX93A3-1" value="Presentation Layer" style="swimlane;whiteSpace=wrap;html=1;" vertex="1" parent="1">
          <mxGeometry x="740" y="20" width="200" height="170" as="geometry" />
        </mxCell>
        <mxCell id="pRn54FA1rMRt-XrX93A3-4" style="edgeStyle=orthogonalEdgeStyle;rounded=0;orthogonalLoop=1;jettySize=auto;html=1;entryX=0.5;entryY=0;entryDx=0;entryDy=0;" edge="1" parent="pRn54FA1rMRt-XrX93A3-1" source="pRn54FA1rMRt-XrX93A3-2" target="pRn54FA1rMRt-XrX93A3-3">
          <mxGeometry relative="1" as="geometry" />
        </mxCell>
        <mxCell id="pRn54FA1rMRt-XrX93A3-2" value="&lt;font style=&quot;font-size: 11px;&quot;&gt;«interface»&lt;br&gt;&lt;/font&gt;&lt;b&gt;&lt;font style=&quot;font-size: 10px;&quot;&gt;Web&lt;/font&gt;&lt;/b&gt;" style="html=1;whiteSpace=wrap;" vertex="1" parent="pRn54FA1rMRt-XrX93A3-1">
          <mxGeometry x="50" y="30" width="110" height="50" as="geometry" />
        </mxCell>
        <mxCell id="pRn54FA1rMRt-XrX93A3-3" value="&lt;font style=&quot;font-size: 10px;&quot;&gt;RESTful API&lt;/font&gt;" style="rounded=0;whiteSpace=wrap;html=1;" vertex="1" parent="pRn54FA1rMRt-XrX93A3-1">
          <mxGeometry x="50" y="120" width="110" height="30" as="geometry" />
        </mxCell>
        <mxCell id="pRn54FA1rMRt-XrX93A3-5" value="Persistence Layer" style="swimlane;whiteSpace=wrap;html=1;fillColor=#dae8fc;strokeColor=#6c8ebf;" vertex="1" parent="1">
          <mxGeometry x="10" y="245" width="200" height="340" as="geometry" />
        </mxCell>
        <mxCell id="pRn54FA1rMRt-XrX93A3-8" value="" style="edgeStyle=orthogonalEdgeStyle;rounded=0;orthogonalLoop=1;jettySize=auto;html=1;" edge="1" parent="pRn54FA1rMRt-XrX93A3-5" source="pRn54FA1rMRt-XrX93A3-6" target="pRn54FA1rMRt-XrX93A3-7">
          <mxGeometry relative="1" as="geometry" />
        </mxCell>
        <mxCell id="pRn54FA1rMRt-XrX93A3-6" value="&lt;font size=&quot;1&quot;&gt;JPA Provider&lt;/font&gt;" style="rounded=0;whiteSpace=wrap;html=1;fillColor=#dae8fc;strokeColor=#6c8ebf;" vertex="1" parent="pRn54FA1rMRt-XrX93A3-5">
          <mxGeometry x="40" y="50" width="120" height="30" as="geometry" />
        </mxCell>
        <mxCell id="pRn54FA1rMRt-XrX93A3-10" value="" style="edgeStyle=orthogonalEdgeStyle;rounded=0;orthogonalLoop=1;jettySize=auto;html=1;" edge="1" parent="pRn54FA1rMRt-XrX93A3-5" source="pRn54FA1rMRt-XrX93A3-7" target="pRn54FA1rMRt-XrX93A3-9">
          <mxGeometry relative="1" as="geometry" />
        </mxCell>
        <mxCell id="pRn54FA1rMRt-XrX93A3-7" value="&lt;font size=&quot;1&quot;&gt;EntityManagerFactory&lt;/font&gt;" style="rounded=0;whiteSpace=wrap;html=1;fillColor=#dae8fc;strokeColor=#6c8ebf;" vertex="1" parent="pRn54FA1rMRt-XrX93A3-5">
          <mxGeometry x="40" y="120" width="120" height="30" as="geometry" />
        </mxCell>
        <mxCell id="pRn54FA1rMRt-XrX93A3-9" value="&lt;font size=&quot;1&quot;&gt;EntityManager&lt;/font&gt;" style="rounded=0;whiteSpace=wrap;html=1;fillColor=#dae8fc;strokeColor=#6c8ebf;" vertex="1" parent="pRn54FA1rMRt-XrX93A3-5">
          <mxGeometry x="40" y="180" width="120" height="30" as="geometry" />
        </mxCell>
        <mxCell id="pRn54FA1rMRt-XrX93A3-11" value="DB" style="strokeWidth=2;html=1;shape=mxgraph.flowchart.database;whiteSpace=wrap;fillColor=#dae8fc;strokeColor=#6c8ebf;" vertex="1" parent="pRn54FA1rMRt-XrX93A3-5">
          <mxGeometry x="70" y="260" width="60" height="60" as="geometry" />
        </mxCell>
        <mxCell id="pRn54FA1rMRt-XrX93A3-12" style="edgeStyle=orthogonalEdgeStyle;rounded=0;orthogonalLoop=1;jettySize=auto;html=1;entryX=0.487;entryY=-0.037;entryDx=0;entryDy=0;entryPerimeter=0;" edge="1" parent="pRn54FA1rMRt-XrX93A3-5" source="pRn54FA1rMRt-XrX93A3-9" target="pRn54FA1rMRt-XrX93A3-11">
          <mxGeometry relative="1" as="geometry" />
        </mxCell>
        <mxCell id="1LBBDcHjwE87D0FYHHia-13" value="Business Logic Layer" style="swimlane;whiteSpace=wrap;html=1;" vertex="1" parent="1">
          <mxGeometry x="230" y="200" width="760" height="470" as="geometry" />
        </mxCell>
        <mxCell id="1LBBDcHjwE87D0FYHHia-2" value="Services" style="swimlane;whiteSpace=wrap;html=1;fillColor=#e1d5e7;strokeColor=#9673a6;" vertex="1" parent="1LBBDcHjwE87D0FYHHia-13">
          <mxGeometry x="520" y="40" width="200" height="210" as="geometry" />
        </mxCell>
        <mxCell id="1LBBDcHjwE87D0FYHHia-5" value="ENTITIES" style="swimlane;fontStyle=0;childLayout=stackLayout;horizontal=1;startSize=26;horizontalStack=0;resizeParent=1;resizeParentMax=0;resizeLast=0;collapsible=1;marginBottom=0;align=center;fontSize=11;fillColor=#e1d5e7;strokeColor=#9673a6;" vertex="1" parent="1LBBDcHjwE87D0FYHHia-2">
          <mxGeometry x="40" y="40" width="120" height="146" as="geometry">
            <mxRectangle x="20" y="80" width="60" height="30" as="alternateBounds" />
          </mxGeometry>
        </mxCell>
        <mxCell id="1LBBDcHjwE87D0FYHHia-9" value="Event Service" style="text;strokeColor=#9673a6;fillColor=#e1d5e7;spacingLeft=4;spacingRight=4;overflow=hidden;rotatable=0;points=[[0,0.5],[1,0.5]];portConstraint=eastwest;fontSize=10;whiteSpace=wrap;html=1;" vertex="1" parent="1LBBDcHjwE87D0FYHHia-5">
          <mxGeometry y="26" width="120" height="30" as="geometry" />
        </mxCell>
        <mxCell id="1LBBDcHjwE87D0FYHHia-10" value="User Service" style="text;strokeColor=#9673a6;fillColor=#e1d5e7;spacingLeft=4;spacingRight=4;overflow=hidden;rotatable=0;points=[[0,0.5],[1,0.5]];portConstraint=eastwest;fontSize=10;whiteSpace=wrap;html=1;" vertex="1" parent="1LBBDcHjwE87D0FYHHia-5">
          <mxGeometry y="56" width="120" height="30" as="geometry" />
        </mxCell>
        <mxCell id="1LBBDcHjwE87D0FYHHia-11" value="Ticket Service" style="text;strokeColor=#9673a6;fillColor=#e1d5e7;spacingLeft=4;spacingRight=4;overflow=hidden;rotatable=0;points=[[0,0.5],[1,0.5]];portConstraint=eastwest;fontSize=10;whiteSpace=wrap;html=1;" vertex="1" parent="1LBBDcHjwE87D0FYHHia-5">
          <mxGeometry y="86" width="120" height="30" as="geometry" />
        </mxCell>
        <mxCell id="1LBBDcHjwE87D0FYHHia-12" value="Booking Service" style="text;strokeColor=#9673a6;fillColor=#e1d5e7;spacingLeft=4;spacingRight=4;overflow=hidden;rotatable=0;points=[[0,0.5],[1,0.5]];portConstraint=eastwest;fontSize=10;whiteSpace=wrap;html=1;" vertex="1" parent="1LBBDcHjwE87D0FYHHia-5">
          <mxGeometry y="116" width="120" height="30" as="geometry" />
        </mxCell>
        <mxCell id="pRn54FA1rMRt-XrX93A3-24" value="Transaction Management" style="swimlane;whiteSpace=wrap;html=1;fillColor=#dae8fc;strokeColor=#6C8EBF;" vertex="1" parent="1LBBDcHjwE87D0FYHHia-13">
          <mxGeometry x="30" y="40" width="200" height="180" as="geometry" />
        </mxCell>
        <mxCell id="pRn54FA1rMRt-XrX93A3-25" value="" style="edgeStyle=orthogonalEdgeStyle;rounded=0;orthogonalLoop=1;jettySize=auto;html=1;" edge="1" parent="pRn54FA1rMRt-XrX93A3-24" source="pRn54FA1rMRt-XrX93A3-26" target="pRn54FA1rMRt-XrX93A3-28">
          <mxGeometry relative="1" as="geometry" />
        </mxCell>
        <mxCell id="pRn54FA1rMRt-XrX93A3-26" value="&lt;font size=&quot;1&quot;&gt;Error Handler&lt;/font&gt;" style="rounded=0;whiteSpace=wrap;html=1;fillColor=#dae8fc;strokeColor=#6C8EBF;" vertex="1" parent="pRn54FA1rMRt-XrX93A3-24">
          <mxGeometry x="40" y="50" width="120" height="30" as="geometry" />
        </mxCell>
        <mxCell id="pRn54FA1rMRt-XrX93A3-28" value="&lt;font size=&quot;1&quot;&gt;Transaction Manager&lt;/font&gt;" style="rounded=0;whiteSpace=wrap;html=1;fillColor=#dae8fc;strokeColor=#6c8ebf;" vertex="1" parent="pRn54FA1rMRt-XrX93A3-24">
          <mxGeometry x="40" y="120" width="120" height="30" as="geometry" />
        </mxCell>
        <mxCell id="pRn54FA1rMRt-XrX93A3-13" value="Initializers" style="swimlane;whiteSpace=wrap;html=1;fillColor=#fff2cc;strokeColor=#d6b656;" vertex="1" parent="1LBBDcHjwE87D0FYHHia-13">
          <mxGeometry x="270" y="35" width="200" height="400" as="geometry" />
        </mxCell>
        <mxCell id="pRn54FA1rMRt-XrX93A3-23" style="edgeStyle=orthogonalEdgeStyle;rounded=0;orthogonalLoop=1;jettySize=auto;html=1;entryX=0.5;entryY=0;entryDx=0;entryDy=0;" edge="1" parent="pRn54FA1rMRt-XrX93A3-13" source="pRn54FA1rMRt-XrX93A3-14" target="pRn54FA1rMRt-XrX93A3-15">
          <mxGeometry relative="1" as="geometry" />
        </mxCell>
        <mxCell id="pRn54FA1rMRt-XrX93A3-14" value="&lt;font style=&quot;font-size: 10px;&quot;&gt;DataInitializer&lt;/font&gt;" style="rounded=0;whiteSpace=wrap;html=1;fillColor=#fff2cc;strokeColor=#d6b656;" vertex="1" parent="pRn54FA1rMRt-XrX93A3-13">
          <mxGeometry x="40" y="40" width="120" height="30" as="geometry" />
        </mxCell>
        <mxCell id="pRn54FA1rMRt-XrX93A3-15" value="ENTITIES" style="swimlane;fontStyle=0;childLayout=stackLayout;horizontal=1;startSize=26;horizontalStack=0;resizeParent=1;resizeParentMax=0;resizeLast=0;collapsible=1;marginBottom=0;align=center;fontSize=11;fillColor=#fff2cc;strokeColor=#d6b656;" vertex="1" parent="pRn54FA1rMRt-XrX93A3-13">
          <mxGeometry x="40" y="130" width="120" height="236" as="geometry">
            <mxRectangle x="20" y="80" width="60" height="30" as="alternateBounds" />
          </mxGeometry>
        </mxCell>
        <mxCell id="pRn54FA1rMRt-XrX93A3-16" value="Genre Initializer" style="text;strokeColor=#d6b656;fillColor=#fff2cc;spacingLeft=4;spacingRight=4;overflow=hidden;rotatable=0;points=[[0,0.5],[1,0.5]];portConstraint=eastwest;fontSize=10;whiteSpace=wrap;html=1;" vertex="1" parent="pRn54FA1rMRt-XrX93A3-15">
          <mxGeometry y="26" width="120" height="30" as="geometry" />
        </mxCell>
        <mxCell id="pRn54FA1rMRt-XrX93A3-17" value="Performer Initializer" style="text;strokeColor=#d6b656;fillColor=#fff2cc;spacingLeft=4;spacingRight=4;overflow=hidden;rotatable=0;points=[[0,0.5],[1,0.5]];portConstraint=eastwest;fontSize=10;whiteSpace=wrap;html=1;" vertex="1" parent="pRn54FA1rMRt-XrX93A3-15">
          <mxGeometry y="56" width="120" height="30" as="geometry" />
        </mxCell>
        <mxCell id="pRn54FA1rMRt-XrX93A3-18" value="Venue Initializer" style="text;strokeColor=#d6b656;fillColor=#fff2cc;spacingLeft=4;spacingRight=4;overflow=hidden;rotatable=0;points=[[0,0.5],[1,0.5]];portConstraint=eastwest;fontSize=10;whiteSpace=wrap;html=1;" vertex="1" parent="pRn54FA1rMRt-XrX93A3-15">
          <mxGeometry y="86" width="120" height="30" as="geometry" />
        </mxCell>
        <mxCell id="pRn54FA1rMRt-XrX93A3-22" value="Event Initializer" style="text;strokeColor=#d6b656;fillColor=#fff2cc;spacingLeft=4;spacingRight=4;overflow=hidden;rotatable=0;points=[[0,0.5],[1,0.5]];portConstraint=eastwest;fontSize=10;whiteSpace=wrap;html=1;" vertex="1" parent="pRn54FA1rMRt-XrX93A3-15">
          <mxGeometry y="116" width="120" height="30" as="geometry" />
        </mxCell>
        <mxCell id="pRn54FA1rMRt-XrX93A3-21" value="Ticket Category Initializer" style="text;strokeColor=#d6b656;fillColor=#fff2cc;spacingLeft=4;spacingRight=4;overflow=hidden;rotatable=0;points=[[0,0.5],[1,0.5]];portConstraint=eastwest;fontSize=10;whiteSpace=wrap;html=1;" vertex="1" parent="pRn54FA1rMRt-XrX93A3-15">
          <mxGeometry y="146" width="120" height="30" as="geometry" />
        </mxCell>
        <mxCell id="pRn54FA1rMRt-XrX93A3-20" value="Ticket Initializer" style="text;strokeColor=#d6b656;fillColor=#fff2cc;spacingLeft=4;spacingRight=4;overflow=hidden;rotatable=0;points=[[0,0.5],[1,0.5]];portConstraint=eastwest;fontSize=10;whiteSpace=wrap;html=1;" vertex="1" parent="pRn54FA1rMRt-XrX93A3-15">
          <mxGeometry y="176" width="120" height="30" as="geometry" />
        </mxCell>
        <mxCell id="pRn54FA1rMRt-XrX93A3-19" value="Booking Initializer" style="text;strokeColor=#d6b656;fillColor=#fff2cc;spacingLeft=4;spacingRight=4;overflow=hidden;rotatable=0;points=[[0,0.5],[1,0.5]];portConstraint=eastwest;fontSize=10;whiteSpace=wrap;html=1;" vertex="1" parent="pRn54FA1rMRt-XrX93A3-15">
          <mxGeometry y="206" width="120" height="30" as="geometry" />
        </mxCell>
        <mxCell id="e6dd-Gf9sKONnrLcu6J4-1" style="edgeStyle=orthogonalEdgeStyle;rounded=0;orthogonalLoop=1;jettySize=auto;html=1;entryX=1.004;entryY=0.615;entryDx=0;entryDy=0;entryPerimeter=0;strokeWidth=0.5;" edge="1" parent="1LBBDcHjwE87D0FYHHia-13" source="pRn54FA1rMRt-XrX93A3-14" target="pRn54FA1rMRt-XrX93A3-28">
          <mxGeometry relative="1" as="geometry">
            <Array as="points">
              <mxPoint x="250" y="90" />
              <mxPoint x="250" y="179" />
            </Array>
          </mxGeometry>
        </mxCell>
        <mxCell id="1LBBDcHjwE87D0FYHHia-15" style="edgeStyle=orthogonalEdgeStyle;rounded=0;orthogonalLoop=1;jettySize=auto;html=1;entryX=0.479;entryY=-0.004;entryDx=0;entryDy=0;entryPerimeter=0;" edge="1" parent="1" source="pRn54FA1rMRt-XrX93A3-3" target="1LBBDcHjwE87D0FYHHia-2">
          <mxGeometry relative="1" as="geometry" />
        </mxCell>
        <mxCell id="1LBBDcHjwE87D0FYHHia-16" value="Data Access Layer" style="swimlane;whiteSpace=wrap;html=1;" vertex="1" parent="1">
          <mxGeometry x="190" y="699" width="830" height="470" as="geometry" />
        </mxCell>
        <mxCell id="1LBBDcHjwE87D0FYHHia-38" value="Data Access Objects" style="swimlane;whiteSpace=wrap;html=1;fillColor=#f8cecc;strokeColor=#b85450;" vertex="1" parent="1LBBDcHjwE87D0FYHHia-16">
          <mxGeometry x="20" y="50" width="800" height="110" as="geometry" />
        </mxCell>
        <mxCell id="1LBBDcHjwE87D0FYHHia-39" value="&lt;font style=&quot;font-size: 10px;&quot;&gt;UserDAO&lt;/font&gt;" style="rounded=0;whiteSpace=wrap;html=1;fillColor=#f8cecc;strokeColor=#b85450;" vertex="1" parent="1LBBDcHjwE87D0FYHHia-38">
          <mxGeometry x="14" y="40" width="86" height="30" as="geometry" />
        </mxCell>
        <mxCell id="1LBBDcHjwE87D0FYHHia-43" value="&lt;font style=&quot;font-size: 10px;&quot;&gt;VenueDAO&lt;/font&gt;" style="rounded=0;whiteSpace=wrap;html=1;fillColor=#f8cecc;strokeColor=#b85450;" vertex="1" parent="1LBBDcHjwE87D0FYHHia-38">
          <mxGeometry x="110" y="40" width="86" height="30" as="geometry" />
        </mxCell>
        <mxCell id="1LBBDcHjwE87D0FYHHia-44" value="&lt;font style=&quot;font-size: 10px;&quot;&gt;GenreDAO&lt;/font&gt;" style="rounded=0;whiteSpace=wrap;html=1;fillColor=#f8cecc;strokeColor=#b85450;" vertex="1" parent="1LBBDcHjwE87D0FYHHia-38">
          <mxGeometry x="210" y="40" width="86" height="30" as="geometry" />
        </mxCell>
        <mxCell id="1LBBDcHjwE87D0FYHHia-45" value="&lt;font style=&quot;font-size: 10px;&quot;&gt;PerformerDAO&lt;/font&gt;" style="rounded=0;whiteSpace=wrap;html=1;fillColor=#f8cecc;strokeColor=#b85450;" vertex="1" parent="1LBBDcHjwE87D0FYHHia-38">
          <mxGeometry x="310" y="40" width="86" height="30" as="geometry" />
        </mxCell>
        <mxCell id="1LBBDcHjwE87D0FYHHia-46" value="&lt;font style=&quot;font-size: 10px;&quot;&gt;EventDAO&lt;/font&gt;" style="rounded=0;whiteSpace=wrap;html=1;fillColor=#f8cecc;strokeColor=#b85450;" vertex="1" parent="1LBBDcHjwE87D0FYHHia-38">
          <mxGeometry x="410" y="40" width="86" height="30" as="geometry" />
        </mxCell>
        <mxCell id="1LBBDcHjwE87D0FYHHia-47" value="&lt;font style=&quot;font-size: 10px;&quot;&gt;BookingDAO&lt;/font&gt;" style="rounded=0;whiteSpace=wrap;html=1;fillColor=#f8cecc;strokeColor=#b85450;" vertex="1" parent="1LBBDcHjwE87D0FYHHia-38">
          <mxGeometry x="510" y="40" width="86" height="30" as="geometry" />
        </mxCell>
        <mxCell id="1LBBDcHjwE87D0FYHHia-48" value="&lt;font style=&quot;font-size: 10px;&quot;&gt;TicketDAO&lt;/font&gt;" style="rounded=0;whiteSpace=wrap;html=1;fillColor=#f8cecc;strokeColor=#b85450;" vertex="1" parent="1LBBDcHjwE87D0FYHHia-38">
          <mxGeometry x="610" y="40" width="86" height="30" as="geometry" />
        </mxCell>
        <mxCell id="1LBBDcHjwE87D0FYHHia-49" value="&lt;font style=&quot;font-size: 10px;&quot;&gt;Ticket CategoryDAO&lt;/font&gt;" style="rounded=0;whiteSpace=wrap;html=1;fillColor=#f8cecc;strokeColor=#b85450;" vertex="1" parent="1LBBDcHjwE87D0FYHHia-38">
          <mxGeometry x="704" y="40" width="86" height="30" as="geometry" />
        </mxCell>
        <mxCell id="1LBBDcHjwE87D0FYHHia-50" value="Entity Models" style="swimlane;whiteSpace=wrap;html=1;fillColor=#f5f5f5;fontColor=#333333;strokeColor=#666666;" vertex="1" parent="1LBBDcHjwE87D0FYHHia-16">
          <mxGeometry x="20" y="181" width="800" height="279" as="geometry" />
        </mxCell>
        <mxCell id="1LBBDcHjwE87D0FYHHia-51" value="&lt;font style=&quot;font-size: 10px;&quot;&gt;User&lt;/font&gt;" style="rounded=0;whiteSpace=wrap;html=1;fillColor=#f5f5f5;strokeColor=#666666;fontColor=#333333;" vertex="1" parent="1LBBDcHjwE87D0FYHHia-50">
          <mxGeometry x="352" y="240" width="86" height="30" as="geometry" />
        </mxCell>
        <mxCell id="1LBBDcHjwE87D0FYHHia-64" value="&lt;font style=&quot;font-size: 10px;&quot;&gt;Venue&lt;/font&gt;" style="rounded=0;whiteSpace=wrap;html=1;fillColor=#f5f5f5;strokeColor=#666666;fontColor=#333333;" vertex="1" parent="1LBBDcHjwE87D0FYHHia-50">
          <mxGeometry x="110" y="60" width="86" height="30" as="geometry" />
        </mxCell>
        <mxCell id="1LBBDcHjwE87D0FYHHia-77" style="edgeStyle=orthogonalEdgeStyle;rounded=0;orthogonalLoop=1;jettySize=auto;html=1;entryX=1;entryY=0.5;entryDx=0;entryDy=0;strokeWidth=0.5;dashed=1;" edge="1" parent="1LBBDcHjwE87D0FYHHia-50" source="1LBBDcHjwE87D0FYHHia-65" target="1LBBDcHjwE87D0FYHHia-64">
          <mxGeometry relative="1" as="geometry" />
        </mxCell>
        <mxCell id="1LBBDcHjwE87D0FYHHia-78" style="edgeStyle=orthogonalEdgeStyle;rounded=0;orthogonalLoop=1;jettySize=auto;html=1;entryX=1;entryY=0.5;entryDx=0;entryDy=0;strokeWidth=0.5;dashed=1;" edge="1" parent="1LBBDcHjwE87D0FYHHia-50" source="1LBBDcHjwE87D0FYHHia-65" target="1LBBDcHjwE87D0FYHHia-66">
          <mxGeometry relative="1" as="geometry">
            <Array as="points">
              <mxPoint x="453" y="125" />
            </Array>
          </mxGeometry>
        </mxCell>
        <mxCell id="1LBBDcHjwE87D0FYHHia-85" style="edgeStyle=orthogonalEdgeStyle;rounded=0;orthogonalLoop=1;jettySize=auto;html=1;entryX=0;entryY=0.5;entryDx=0;entryDy=0;dashed=1;strokeWidth=0.5;" edge="1" parent="1LBBDcHjwE87D0FYHHia-50" source="1LBBDcHjwE87D0FYHHia-65" target="1LBBDcHjwE87D0FYHHia-71">
          <mxGeometry relative="1" as="geometry" />
        </mxCell>
        <mxCell id="1LBBDcHjwE87D0FYHHia-65" value="&lt;font style=&quot;font-size: 10px;&quot;&gt;Event&lt;/font&gt;" style="rounded=0;whiteSpace=wrap;html=1;fillColor=#f5f5f5;strokeColor=#666666;fontColor=#333333;" vertex="1" parent="1LBBDcHjwE87D0FYHHia-50">
          <mxGeometry x="410" y="60" width="86" height="30" as="geometry" />
        </mxCell>
        <mxCell id="1LBBDcHjwE87D0FYHHia-76" style="edgeStyle=orthogonalEdgeStyle;rounded=0;orthogonalLoop=1;jettySize=auto;html=1;entryX=1;entryY=0.5;entryDx=0;entryDy=0;strokeWidth=0.5;dashed=1;" edge="1" parent="1LBBDcHjwE87D0FYHHia-50" source="1LBBDcHjwE87D0FYHHia-66" target="1LBBDcHjwE87D0FYHHia-67">
          <mxGeometry relative="1" as="geometry">
            <Array as="points">
              <mxPoint x="350" y="185" />
            </Array>
          </mxGeometry>
        </mxCell>
        <mxCell id="1LBBDcHjwE87D0FYHHia-66" value="&lt;font style=&quot;font-size: 10px;&quot;&gt;Performer&lt;/font&gt;" style="rounded=0;whiteSpace=wrap;html=1;fillColor=#f5f5f5;strokeColor=#666666;fontColor=#333333;" vertex="1" parent="1LBBDcHjwE87D0FYHHia-50">
          <mxGeometry x="310" y="110" width="86" height="30" as="geometry" />
        </mxCell>
        <mxCell id="1LBBDcHjwE87D0FYHHia-67" value="&lt;font style=&quot;font-size: 10px;&quot;&gt;Genre&lt;/font&gt;" style="rounded=0;whiteSpace=wrap;html=1;fillColor=#f5f5f5;strokeColor=#666666;fontColor=#333333;" vertex="1" parent="1LBBDcHjwE87D0FYHHia-50">
          <mxGeometry x="210" y="170" width="86" height="30" as="geometry" />
        </mxCell>
        <mxCell id="1LBBDcHjwE87D0FYHHia-80" style="edgeStyle=orthogonalEdgeStyle;rounded=0;orthogonalLoop=1;jettySize=auto;html=1;entryX=1;entryY=0.5;entryDx=0;entryDy=0;strokeWidth=0.5;dashed=1;" edge="1" parent="1LBBDcHjwE87D0FYHHia-50" source="1LBBDcHjwE87D0FYHHia-68" target="1LBBDcHjwE87D0FYHHia-51">
          <mxGeometry relative="1" as="geometry">
            <Array as="points">
              <mxPoint x="543" y="255" />
            </Array>
          </mxGeometry>
        </mxCell>
        <mxCell id="1LBBDcHjwE87D0FYHHia-68" value="&lt;font style=&quot;font-size: 10px;&quot;&gt;Booking&lt;/font&gt;" style="rounded=0;whiteSpace=wrap;html=1;fillColor=#f5f5f5;strokeColor=#666666;fontColor=#333333;" vertex="1" parent="1LBBDcHjwE87D0FYHHia-50">
          <mxGeometry x="500" y="200" width="86" height="30" as="geometry" />
        </mxCell>
        <mxCell id="1LBBDcHjwE87D0FYHHia-82" style="edgeStyle=orthogonalEdgeStyle;rounded=0;orthogonalLoop=1;jettySize=auto;html=1;endArrow=classic;endFill=1;dashed=1;strokeWidth=0.5;entryX=1;entryY=0.25;entryDx=0;entryDy=0;" edge="1" parent="1LBBDcHjwE87D0FYHHia-50" source="1LBBDcHjwE87D0FYHHia-69" target="1LBBDcHjwE87D0FYHHia-68">
          <mxGeometry relative="1" as="geometry">
            <mxPoint x="550" y="175" as="targetPoint" />
            <Array as="points">
              <mxPoint x="653" y="210" />
              <mxPoint x="590" y="210" />
              <mxPoint x="590" y="207" />
            </Array>
          </mxGeometry>
        </mxCell>
        <mxCell id="1LBBDcHjwE87D0FYHHia-69" value="&lt;font style=&quot;font-size: 10px;&quot;&gt;BookingTicket&lt;/font&gt;" style="rounded=0;whiteSpace=wrap;html=1;fillColor=#f5f5f5;strokeColor=#666666;fontColor=#333333;" vertex="1" parent="1LBBDcHjwE87D0FYHHia-50">
          <mxGeometry x="610" y="160" width="86" height="30" as="geometry" />
        </mxCell>
        <mxCell id="1LBBDcHjwE87D0FYHHia-84" value="" style="edgeStyle=orthogonalEdgeStyle;rounded=0;orthogonalLoop=1;jettySize=auto;html=1;strokeWidth=0.5;dashed=1;" edge="1" parent="1LBBDcHjwE87D0FYHHia-50" source="1LBBDcHjwE87D0FYHHia-70" target="1LBBDcHjwE87D0FYHHia-69">
          <mxGeometry relative="1" as="geometry" />
        </mxCell>
        <mxCell id="1LBBDcHjwE87D0FYHHia-70" value="&lt;span style=&quot;font-size: 10px;&quot;&gt;Ticket&lt;/span&gt;" style="rounded=0;whiteSpace=wrap;html=1;fillColor=#f5f5f5;strokeColor=#666666;fontColor=#333333;" vertex="1" parent="1LBBDcHjwE87D0FYHHia-50">
          <mxGeometry x="610" y="110" width="86" height="30" as="geometry" />
        </mxCell>
        <mxCell id="1LBBDcHjwE87D0FYHHia-71" value="&lt;span style=&quot;font-size: 10px;&quot;&gt;TicketCategory&lt;/span&gt;" style="rounded=0;whiteSpace=wrap;html=1;fillColor=#f5f5f5;strokeColor=#666666;fontColor=#333333;" vertex="1" parent="1LBBDcHjwE87D0FYHHia-50">
          <mxGeometry x="710" y="60" width="86" height="30" as="geometry" />
        </mxCell>
        <mxCell id="1LBBDcHjwE87D0FYHHia-72" style="edgeStyle=orthogonalEdgeStyle;rounded=0;orthogonalLoop=1;jettySize=auto;html=1;entryX=0;entryY=0.75;entryDx=0;entryDy=0;strokeWidth=0.5;dashed=1;" edge="1" parent="1LBBDcHjwE87D0FYHHia-16" source="1LBBDcHjwE87D0FYHHia-39" target="1LBBDcHjwE87D0FYHHia-51">
          <mxGeometry relative="1" as="geometry">
            <Array as="points">
              <mxPoint x="77" y="443" />
            </Array>
          </mxGeometry>
        </mxCell>
        <mxCell id="1LBBDcHjwE87D0FYHHia-73" style="edgeStyle=orthogonalEdgeStyle;rounded=0;orthogonalLoop=1;jettySize=auto;html=1;entryX=0.5;entryY=0;entryDx=0;entryDy=0;strokeWidth=0.5;dashed=1;" edge="1" parent="1LBBDcHjwE87D0FYHHia-16" source="1LBBDcHjwE87D0FYHHia-43" target="1LBBDcHjwE87D0FYHHia-64">
          <mxGeometry relative="1" as="geometry" />
        </mxCell>
        <mxCell id="1LBBDcHjwE87D0FYHHia-74" style="edgeStyle=orthogonalEdgeStyle;rounded=0;orthogonalLoop=1;jettySize=auto;html=1;entryX=0.5;entryY=0;entryDx=0;entryDy=0;strokeWidth=0.5;dashed=1;" edge="1" parent="1LBBDcHjwE87D0FYHHia-16" source="1LBBDcHjwE87D0FYHHia-44" target="1LBBDcHjwE87D0FYHHia-67">
          <mxGeometry relative="1" as="geometry" />
        </mxCell>
        <mxCell id="1LBBDcHjwE87D0FYHHia-75" style="edgeStyle=orthogonalEdgeStyle;rounded=0;orthogonalLoop=1;jettySize=auto;html=1;entryX=0.25;entryY=0;entryDx=0;entryDy=0;strokeWidth=0.5;dashed=1;" edge="1" parent="1LBBDcHjwE87D0FYHHia-16" source="1LBBDcHjwE87D0FYHHia-45" target="1LBBDcHjwE87D0FYHHia-66">
          <mxGeometry relative="1" as="geometry">
            <Array as="points">
              <mxPoint x="352" y="206" />
            </Array>
          </mxGeometry>
        </mxCell>
        <mxCell id="1LBBDcHjwE87D0FYHHia-79" style="edgeStyle=orthogonalEdgeStyle;rounded=0;orthogonalLoop=1;jettySize=auto;html=1;entryX=0.625;entryY=0.09;entryDx=0;entryDy=0;entryPerimeter=0;strokeWidth=0.5;dashed=1;" edge="1" parent="1LBBDcHjwE87D0FYHHia-16" source="1LBBDcHjwE87D0FYHHia-47" target="1LBBDcHjwE87D0FYHHia-68">
          <mxGeometry relative="1" as="geometry" />
        </mxCell>
        <mxCell id="1LBBDcHjwE87D0FYHHia-83" style="edgeStyle=orthogonalEdgeStyle;rounded=0;orthogonalLoop=1;jettySize=auto;html=1;entryX=0.5;entryY=0;entryDx=0;entryDy=0;strokeWidth=0.5;dashed=1;" edge="1" parent="1LBBDcHjwE87D0FYHHia-16" source="1LBBDcHjwE87D0FYHHia-48" target="1LBBDcHjwE87D0FYHHia-70">
          <mxGeometry relative="1" as="geometry" />
        </mxCell>
        <mxCell id="1LBBDcHjwE87D0FYHHia-86" style="edgeStyle=orthogonalEdgeStyle;rounded=0;orthogonalLoop=1;jettySize=auto;html=1;entryX=0.431;entryY=-0.011;entryDx=0;entryDy=0;entryPerimeter=0;strokeWidth=0.5;dashed=1;" edge="1" parent="1LBBDcHjwE87D0FYHHia-16" source="1LBBDcHjwE87D0FYHHia-49" target="1LBBDcHjwE87D0FYHHia-71">
          <mxGeometry relative="1" as="geometry" />
        </mxCell>
        <mxCell id="1LBBDcHjwE87D0FYHHia-87" style="edgeStyle=orthogonalEdgeStyle;rounded=0;orthogonalLoop=1;jettySize=auto;html=1;entryX=0.8;entryY=0.003;entryDx=0;entryDy=0;entryPerimeter=0;" edge="1" parent="1" source="1LBBDcHjwE87D0FYHHia-2" target="1LBBDcHjwE87D0FYHHia-38">
          <mxGeometry relative="1" as="geometry" />
        </mxCell>
        <mxCell id="e6dd-Gf9sKONnrLcu6J4-2" style="edgeStyle=orthogonalEdgeStyle;rounded=0;orthogonalLoop=1;jettySize=auto;html=1;entryX=1;entryY=0.5;entryDx=0;entryDy=0;strokeWidth=0.5;" edge="1" parent="1" source="pRn54FA1rMRt-XrX93A3-28" target="pRn54FA1rMRt-XrX93A3-9">
          <mxGeometry relative="1" as="geometry">
            <Array as="points">
              <mxPoint x="360" y="440" />
            </Array>
          </mxGeometry>
        </mxCell>
      </root>
    </mxGraphModel>
  </diagram>
</mxfile>
